REM MD5 478073bebadc64be67c498b5490e4071
FILE "Hyper PlayStation Re-mix No. 12 (Japan).bin" BINARY
  TRACK 01 MODE2/2352
    INDEX 01 00:00:00
  TRACK 02 AUDIO
    INDEX 00 43:28:56
    INDEX 01 43:31:56
  TRACK 03 AUDIO
    INDEX 00 45:08:43
    INDEX 01 45:11:43
  TRACK 04 AUDIO
    INDEX 00 45:27:29
    INDEX 01 45:31:29
  TRACK 05 AUDIO
    INDEX 00 46:19:66
    INDEX 01 46:24:66
  TRACK 06 AUDIO
    INDEX 00 47:29:17
    INDEX 01 47:35:17
REM LEADOUT 52:00:61
